<svg width="1440" height="48" viewBox="0 0 1440 48" fill="none" xmlns="http://www.w3.org/2000/svg">
<rect x="1046" y="16" width="16" height="16" fill="#2563EB"/>
<rect x="1062" y="2.00002" width="16" height="16" fill="#2563EB"/>
<rect x="1062" y="2.00002" width="16" height="16" fill="#2563EB"/>
<rect x="1030" y="1.52588e-05" width="16" height="16" fill="#2563EB"/>
<rect x="998" y="32" width="16" height="16" fill="#2563EB"/>
<rect width="16" height="16" transform="matrix(-1 0 0 1 1110 32)" fill="#2563EB"/>
<rect x="1030" y="32" width="16" height="16" fill="#2563EB"/>
<rect x="1158" y="46" width="16" height="16" transform="rotate(-180 1158 46)" fill="#2563EB"/>
<rect x="1158" y="46" width="16" height="16" transform="rotate(-180 1158 46)" fill="#2563EB"/>
<rect x="1190" y="48" width="16" height="16" transform="rotate(-180 1190 48)" fill="#2563EB"/>
<rect width="16" height="16" transform="matrix(1 0 0 -1 1110 48)" fill="#2563EB"/>
<rect width="16" height="16" transform="matrix(-1 8.74228e-08 8.74228e-08 1 1334 32)" fill="#2563EB"/>
<rect x="1222" y="32" width="16" height="16" fill="#2563EB"/>
<rect width="16" height="16" transform="matrix(-1 8.74228e-08 8.74228e-08 1 1302 32)" fill="#2563EB"/>
<rect x="1382" y="16" width="16" height="16" fill="#2563EB"/>
<rect x="1398" y="2.00002" width="16" height="16" fill="#2563EB"/>
<rect x="1398" y="2.00002" width="16" height="16" fill="#2563EB"/>
<rect x="1366" y="1.52588e-05" width="16" height="16" fill="#2563EB"/>
<rect x="1334" y="32" width="16" height="16" fill="#2563EB"/>
<rect width="16" height="16" transform="matrix(-1 -8.74228e-08 -8.74228e-08 1 1446 32)" fill="#2563EB"/>
<rect width="16" height="16" transform="matrix(-1 -8.74228e-08 -8.74228e-08 1 1446 3.05176e-05)" fill="#2563EB"/>
<rect width="16" height="16" transform="matrix(-1 -8.74228e-08 -8.74228e-08 1 1430 16)" fill="#2563EB"/>
<rect x="1366" y="32" width="16" height="16" fill="#2563EB"/>
<rect x="487" y="16" width="16" height="16" fill="#2563EB"/>
<rect x="503" y="2.00002" width="16" height="16" fill="#2563EB"/>
<rect x="503" y="2.00002" width="16" height="16" fill="#2563EB"/>
<rect x="471" y="1.52588e-05" width="16" height="16" fill="#2563EB"/>
<rect x="439" y="32" width="16" height="16" fill="#2563EB"/>
<rect width="16" height="16" transform="matrix(-1 0 0 1 551 1.52588e-05)" fill="#2563EB"/>
<rect width="16" height="16" transform="matrix(-1 0 0 1 535 16)" fill="#2563EB"/>
<rect x="471" y="32" width="16" height="16" fill="#2563EB"/>
<rect x="615" y="32" width="16" height="16" transform="rotate(-180 615 32)" fill="#2563EB"/>
<rect x="663" y="16" width="16" height="16" transform="rotate(-180 663 16)" fill="#2563EB"/>
<rect width="16" height="16" transform="matrix(1 0 0 -1 551 16)" fill="#2563EB"/>
<rect width="16" height="16" transform="matrix(1 0 0 -1 567 32)" fill="#2563EB"/>
<rect x="631" y="16" width="16" height="16" transform="rotate(-180 631 16)" fill="#2563EB"/>
<rect width="16" height="16" transform="matrix(-1 8.74228e-08 8.74228e-08 1 727 16)" fill="#2563EB"/>
<rect width="16" height="16" transform="matrix(-1 8.74228e-08 8.74228e-08 1 711 2.00002)" fill="#2563EB"/>
<rect width="16" height="16" transform="matrix(-1 8.74228e-08 8.74228e-08 1 711 2.00002)" fill="#2563EB"/>
<rect width="16" height="16" transform="matrix(-1 8.74228e-08 8.74228e-08 1 743 1.52588e-05)" fill="#2563EB"/>
<rect width="16" height="16" transform="matrix(-1 8.74228e-08 8.74228e-08 1 775 32)" fill="#2563EB"/>
<rect x="663" y="3.05176e-05" width="16" height="16" fill="#2563EB"/>
<rect x="679" y="16" width="16" height="16" fill="#2563EB"/>
<rect width="16" height="16" transform="matrix(-1 8.74228e-08 8.74228e-08 1 743 32)" fill="#2563EB"/>
<rect x="823" y="16" width="16" height="16" fill="#2563EB"/>
<rect x="839" y="2.00002" width="16" height="16" fill="#2563EB"/>
<rect x="839" y="2.00002" width="16" height="16" fill="#2563EB"/>
<rect x="807" y="1.52588e-05" width="16" height="16" fill="#2563EB"/>
<rect x="775" y="32" width="16" height="16" fill="#2563EB"/>
<rect width="16" height="16" transform="matrix(-1 -8.74228e-08 -8.74228e-08 1 887 32)" fill="#2563EB"/>
<rect width="16" height="16" transform="matrix(-1 -8.74228e-08 -8.74228e-08 1 887 3.05176e-05)" fill="#2563EB"/>
<rect width="16" height="16" transform="matrix(-1 -8.74228e-08 -8.74228e-08 1 871 16)" fill="#2563EB"/>
<rect x="807" y="32" width="16" height="16" fill="#2563EB"/>
<rect x="951" y="32" width="16" height="16" transform="rotate(-180 951 32)" fill="#2563EB"/>
<rect x="935" y="46" width="16" height="16" transform="rotate(-180 935 46)" fill="#2563EB"/>
<rect x="935" y="46" width="16" height="16" transform="rotate(-180 935 46)" fill="#2563EB"/>
<rect x="967" y="48" width="16" height="16" transform="rotate(-180 967 48)" fill="#2563EB"/>
<rect x="999" y="16" width="16" height="16" transform="rotate(-180 999 16)" fill="#2563EB"/>
<rect width="16" height="16" transform="matrix(1 8.74228e-08 8.74228e-08 -1 887 16)" fill="#2563EB"/>
<rect width="16" height="16" transform="matrix(1 8.74228e-08 8.74228e-08 -1 887 48)" fill="#2563EB"/>
<rect width="16" height="16" transform="matrix(1 8.74228e-08 8.74228e-08 -1 903 32)" fill="#2563EB"/>
<rect x="967" y="16" width="16" height="16" transform="rotate(-180 967 16)" fill="#2563EB"/>
<rect x="40" y="46" width="16" height="16" transform="rotate(-180 40 46)" fill="#2563EB"/>
<rect x="40" y="46" width="16" height="16" transform="rotate(-180 40 46)" fill="#2563EB"/>
<rect x="72" y="48" width="16" height="16" transform="rotate(-180 72 48)" fill="#2563EB"/>
<rect width="16" height="16" transform="matrix(1 0 0 -1 -8 16)" fill="#2563EB"/>
<rect width="16" height="16" transform="matrix(1 0 0 -1 -8 48)" fill="#2563EB"/>
<rect width="16" height="16" transform="matrix(1 0 0 -1 8 32)" fill="#2563EB"/>
<rect width="16" height="16" transform="matrix(-1 8.74228e-08 8.74228e-08 1 168 16)" fill="#2563EB"/>
<rect width="16" height="16" transform="matrix(-1 8.74228e-08 8.74228e-08 1 152 2.00002)" fill="#2563EB"/>
<rect width="16" height="16" transform="matrix(-1 8.74228e-08 8.74228e-08 1 152 2.00002)" fill="#2563EB"/>
<rect width="16" height="16" transform="matrix(-1 8.74228e-08 8.74228e-08 1 184 1.52588e-05)" fill="#2563EB"/>
<rect width="16" height="16" transform="matrix(-1 8.74228e-08 8.74228e-08 1 216 32)" fill="#2563EB"/>
<rect x="104" y="32" width="16" height="16" fill="#2563EB"/>
<rect width="16" height="16" transform="matrix(-1 8.74228e-08 8.74228e-08 1 184 32)" fill="#2563EB"/>
<rect x="264" y="16" width="16" height="16" fill="#2563EB"/>
<rect x="280" y="2.00002" width="16" height="16" fill="#2563EB"/>
<rect x="280" y="2.00002" width="16" height="16" fill="#2563EB"/>
<rect x="248" y="1.52588e-05" width="16" height="16" fill="#2563EB"/>
<rect x="216" y="32" width="16" height="16" fill="#2563EB"/>
<rect width="16" height="16" transform="matrix(-1 -8.74228e-08 -8.74228e-08 1 328 32)" fill="#2563EB"/>
<rect width="16" height="16" transform="matrix(-1 -8.74228e-08 -8.74228e-08 1 328 3.05176e-05)" fill="#2563EB"/>
<rect width="16" height="16" transform="matrix(-1 -8.74228e-08 -8.74228e-08 1 312 16)" fill="#2563EB"/>
<rect x="248" y="32" width="16" height="16" fill="#2563EB"/>
<rect x="392" y="32" width="16" height="16" transform="rotate(-180 392 32)" fill="#2563EB"/>
<rect x="376" y="46" width="16" height="16" transform="rotate(-180 376 46)" fill="#2563EB"/>
<rect x="376" y="46" width="16" height="16" transform="rotate(-180 376 46)" fill="#2563EB"/>
<rect x="408" y="48" width="16" height="16" transform="rotate(-180 408 48)" fill="#2563EB"/>
<rect x="440" y="16" width="16" height="16" transform="rotate(-180 440 16)" fill="#2563EB"/>
<rect width="16" height="16" transform="matrix(1 8.74228e-08 8.74228e-08 -1 328 16)" fill="#2563EB"/>
<rect width="16" height="16" transform="matrix(1 8.74228e-08 8.74228e-08 -1 328 48)" fill="#2563EB"/>
<rect width="16" height="16" transform="matrix(1 8.74228e-08 8.74228e-08 -1 344 32)" fill="#2563EB"/>
<rect x="408" y="16" width="16" height="16" transform="rotate(-180 408 16)" fill="#2563EB"/>
</svg>
